<?xml version="1.0" encoding="iso-8859-1"?>
<!-- Generator: Adobe Illustrator 19.0.0, SVG Export Plug-In . SVG Version: 6.00 Build 0)  -->
<svg version="1.1" id="Capa_1" xmlns="http://www.w3.org/2000/svg" xmlns:xlink="http://www.w3.org/1999/xlink" x="0px" y="0px"
	 viewBox="0 0 266.756 266.756" style="enable-background:new 0 0 266.756 266.756;" xml:space="preserve">
<g>
	<g>
		<path style="fill:#723F1D;" d="M131.277,218.618L94.4,205.532c-4.571,17.597-7.123,51.115,14.011,59.769
			C132.66,275.231,131.277,231.554,131.277,218.618z"/>
		<path style="fill:#723F1D;" d="M135.479,218.618l36.878-13.086c4.57,17.597,7.122,51.115-14.012,59.769
			C134.097,275.231,135.479,231.554,135.479,218.618z"/>
	</g>
	<g>
		<path style="fill:#723F1D;" d="M86.995,144.707c-10.44,4.907-16.024,23.964-17.562,34.039
			c-2.766,18.125,10.652,39.945,29.503,33.527l4.758-58.291C104.378,144.634,95.302,140.803,86.995,144.707z"/>
		<path style="fill:#723F1D;" d="M179.762,144.707c10.44,4.907,16.024,23.964,17.563,34.039
			c2.764,18.125-10.653,39.945-29.505,33.527l-4.758-58.291C162.378,144.634,171.455,140.803,179.762,144.707z"/>
	</g>
	<path style="fill:#9E5B2E;" d="M103.879,145.373c23.188-22.521,61.387-10.559,71.047,17.776
		c7.148,20.972,7.728,49.018-10.205,64.683c-18.63,16.274-51.122,11.854-66.349-6.159C81.015,201.136,84.58,164.117,103.879,145.373
		z"/>
	<path style="fill:#844A23;" d="M96.6,152.88c0,0,38.865,45.119,74.348,0H96.6z"/>
	<g>
		<g>
			<g>
				<path style="fill:#9E5B2E;" d="M60.493,1.347c-29.766,8.208-27.54,56.007-1.162,67.544l41.637-23.792
					C100.611,20.925,88.675-6.424,60.493,1.347z"/>
				<path style="fill:#F4C8C1;" d="M66.469,62.941c0,0,27.261-10.667,27.362-10.707c2.991-1.307-9.863-29.192-11.423-31.485
					c-7.431-10.92-22.753-12.191-29.057-0.005c-6.549,12.659,3.174,35.739,14.476,43.236C69.737,65.064,66.921,63.234,66.469,62.941
					z"/>
			</g>
			<g>
				<path style="fill:#9E5B2E;" d="M206.263,1.347c29.767,8.208,27.539,56.007,1.162,67.544l-41.637-23.792
					C166.145,20.925,178.081-6.424,206.263,1.347z"/>
				<path style="fill:#F4C8C1;" d="M200.287,62.941c0,0-27.262-10.667-27.362-10.707c-2.99-1.307,9.861-29.192,11.422-31.485
					c7.432-10.92,22.753-12.191,29.059-0.005c6.548,12.659-3.177,35.739-14.478,43.236
					C197.019,65.064,199.836,63.234,200.287,62.941z"/>
			</g>
		</g>
		<path style="fill:#B56F40;" d="M210.896,66.885c-15.839-23.122-48.035-33.133-77.518-32.402
			c-29.482-0.731-61.68,9.28-77.518,32.402c-24.456,35.704,4.621,74.231,40.741,85.995c11.629,3.786,24.261,5.841,36.778,5.964
			c12.516-0.123,25.148-2.178,36.776-5.964C206.276,141.115,235.352,102.589,210.896,66.885z"/>
	</g>
	<g>
		<path style="fill:#E28E54;" d="M75.61,138.953c-6.404-3.12-10.36-9.875-7.035-20.462c5.628-17.922,34.504-19.597,37.089,1.491
			C107.873,138,87.512,144.753,75.61,138.953z"/>
		<path style="fill:#E28E54;" d="M191.146,138.953c6.404-3.12,10.361-9.875,7.036-20.462c-5.627-17.922-34.503-19.597-37.089,1.491
			C158.884,138,179.243,144.753,191.146,138.953z"/>
	</g>
	<g>
		<g>
			<g>
				<circle style="fill:#FFFFFF;" cx="97.774" cy="102.299" r="16.354"/>
				<circle cx="97.773" cy="102.299" r="10.714"/>
			</g>
			<circle style="fill:#FFFFFF;" cx="105.356" cy="95.551" r="5.353"/>
		</g>
		<g>
			<g>
				<circle style="fill:#FFFFFF;" cx="168.325" cy="102.299" r="16.354"/>
				<circle cx="168.325" cy="102.299" r="10.715"/>
			</g>
			<circle style="fill:#FFFFFF;" cx="175.907" cy="95.551" r="5.354"/>
		</g>
	</g>
	<path d="M149.815,121.461c-3.686-10.22-29.097-10.296-32.803,0.007C111.776,136.029,154.599,134.753,149.815,121.461z
		 M140.319,107.324c-0.048-0.008-0.025-0.018,0-0.025C140.342,107.307,140.367,107.316,140.319,107.324z"/>
	<path d="M150.241,134.041c-5.527,17.526-27.779,14.493-34.184-0.663c-1.389-3.287-6.17-0.455-4.793,2.803
		c3.92,9.275,12.828,15.296,22.861,15.66c10.36,0.376,18.469-6.812,21.469-16.324C156.674,132.094,151.315,130.639,150.241,134.041z
		"/>
	<g>
		<path style="fill:#844A23;" d="M88.378,62.364c5.972-0.177,12.24,4.441,5.273,10.822c-4.457,4.08-13.267,2.538-12.808-4.338
			C81.139,64.399,84.703,62.474,88.378,62.364z"/>
		<path style="fill:#844A23;" d="M178.379,62.364c-5.973-0.177-12.242,4.441-5.274,10.822c4.458,4.08,13.268,2.538,12.809-4.338
			C185.617,64.399,182.053,62.474,178.379,62.364z"/>
	</g>
</g>
<g>
</g>
<g>
</g>
<g>
</g>
<g>
</g>
<g>
</g>
<g>
</g>
<g>
</g>
<g>
</g>
<g>
</g>
<g>
</g>
<g>
</g>
<g>
</g>
<g>
</g>
<g>
</g>
<g>
</g>
</svg>
