<?xml version="1.0" encoding="UTF-8" standalone="no"?>
<!-- Created with Inkscape (http://www.inkscape.org/) -->

<svg
   width="21.5952mm"
   height="19.969101mm"
   viewBox="0 0 21.5952 19.969101"
   version="1.1"
   id="svg5"
   inkscape:version="1.1.1 (3bf5ae0d25, 2021-09-20)"
   sodipodi:docname="spiral-s.svg"
   xmlns:inkscape="http://www.inkscape.org/namespaces/inkscape"
   xmlns:sodipodi="http://sodipodi.sourceforge.net/DTD/sodipodi-0.dtd"
   xmlns="http://www.w3.org/2000/svg"
   xmlns:svg="http://www.w3.org/2000/svg">
  <sodipodi:namedview
     id="namedview7"
     pagecolor="#ffffff"
     bordercolor="#666666"
     borderopacity="1.0"
     inkscape:pageshadow="2"
     inkscape:pageopacity="0.0"
     inkscape:pagecheckerboard="0"
     inkscape:document-units="mm"
     showgrid="false"
     inkscape:zoom="0.36570743"
     inkscape:cx="367.78033"
     inkscape:cy="151.76066"
     inkscape:window-width="1600"
     inkscape:window-height="837"
     inkscape:window-x="-8"
     inkscape:window-y="-8"
     inkscape:window-maximized="1"
     inkscape:current-layer="layer1" />
  <defs
     id="defs2" />
  <g
     inkscape:label="Layer 1"
     inkscape:groupmode="layer"
     id="layer1"
     transform="translate(-76.513887,-95.610818)">
    <path
       sodipodi:type="spiral"
       style="fill:none;fill-rule:evenodd;stroke:#0f172a;stroke-width:6.29291;stroke-miterlimit:4;stroke-dasharray:none;stroke-opacity:1"
       id="path1437"
       sodipodi:cx="325.39673"
       sodipodi:cy="401.96066"
       sodipodi:expansion="1"
       sodipodi:revolution="2.4100001"
       sodipodi:radius="44.513233"
       sodipodi:argument="-20.596813"
       sodipodi:t0="0.1"
       d="m 329.72776,400.93282 c 3.15316,2.96195 0.89414,7.94713 -2.23697,9.85164 -5.66389,3.4451 -12.76625,-0.11259 -15.41063,-5.66351 -3.89904,-8.18461 1.10988,-17.66833 9.09005,-20.96963 10.66415,-4.41162 22.60141,2.10077 26.52863,12.5166 4.95024,13.12912 -3.08785,27.54962 -15.94315,32.08762 -15.58748,5.50248 -32.5064,-4.07264 -37.64661,-19.36969 -6.0627,-18.04234 5.05598,-37.46855 22.79623,-43.20561 20.49512,-6.62796 42.43426,6.03837 48.76461,26.22278 4.63664,14.784 0.46216,31.22358 -10.19451,42.37076"
       transform="matrix(0.26526799,0,0,0.26381812,-0.22506592,0.30510286)" />
  </g>
</svg>
