<?xml version="1.0" encoding="UTF-8" standalone="no"?>
<!-- Created with Inkscape (http://www.inkscape.org/) -->

<svg
   width="133.52242mm"
   height="161.65933mm"
   viewBox="0 0 133.52242 161.65933"
   version="1.1"
   id="svg7302"
   sodipodi:docname="trunk.svg"
   inkscape:version="1.1.1 (3bf5ae0d25, 2021-09-20)"
   xmlns:inkscape="http://www.inkscape.org/namespaces/inkscape"
   xmlns:sodipodi="http://sodipodi.sourceforge.net/DTD/sodipodi-0.dtd"
   xmlns="http://www.w3.org/2000/svg"
   xmlns:svg="http://www.w3.org/2000/svg">
  <sodipodi:namedview
     id="namedview7304"
     pagecolor="#ffffff"
     bordercolor="#666666"
     borderopacity="1.0"
     inkscape:pageshadow="2"
     inkscape:pageopacity="0.0"
     inkscape:pagecheckerboard="0"
     inkscape:document-units="mm"
     showgrid="false"
     inkscape:zoom="0.38425619"
     inkscape:cx="-568.63105"
     inkscape:cy="493.16057"
     inkscape:window-width="1600"
     inkscape:window-height="837"
     inkscape:window-x="-8"
     inkscape:window-y="-8"
     inkscape:window-maximized="1"
     inkscape:current-layer="layer1" />
  <defs
     id="defs7299" />
  <g
     inkscape:label="Layer 1"
     inkscape:groupmode="layer"
     id="layer1"
     transform="translate(-4.8490019,-54.128042)">
    <path
       style="fill:#803300;fill-opacity:1;stroke:none;stroke-width:3.665;stroke-linecap:butt;stroke-linejoin:miter;stroke-opacity:1;stroke-miterlimit:4;stroke-dasharray:none"
       d="m 86.957612,215.78737 c 2.506946,-12.4075 5.577928,-24.03404 -0.511579,-48.34432 -9.399008,-0.42842 -17.114679,-11.33409 -23.508232,-20.6696 -2.173121,-3.17307 -2.719184,-6.87287 -4.82052,-9.3218 -16.566576,-10.04908 -34.574779,5.33138 -53.2682791,0.31975 11.8516131,-0.0899 23.7032111,-4.48283 35.5548161,-6.65056 5.480413,-0.35002 10.800408,-0.0584 15.603196,2.30211 -3.70958,-12.23142 -9.584602,-15.53291 -15.858984,-19.69582 -2.664481,-1.58997 -5.32896,-3.65386 -7.993441,-6.26686 -2.782615,-2.30006 -3.879271,-3.96602 -12.725564,-7.29001 3.063293,0.86994 5.993342,0.27386 9.20845,2.81369 l -0.767369,-4.348436 c 4.108532,6.957606 9.128766,13.345596 15.858985,15.858986 2.387372,0.9379 4.263168,2.13158 5.62738,3.58106 -4.029964,-6.70017 -2.935448,-12.32151 -4.092641,-18.416884 1.278049,4.007834 1.884381,8.351514 3.836853,12.022134 0.302778,-2.96408 1.062934,-5.73214 2.557899,-8.18528 -2.010638,10.05799 -0.683922,15.04321 1.534742,18.67268 l 10.487393,20.20739 c 6.423477,9.88936 12.89459,19.59184 21.486365,20.97479 -0.118552,-10.91147 -8.038201,-9.76085 6.522648,-45.65851 l 2.557902,-9.59213 C 94.170188,101.52489 93.596908,94.206268 92.840784,86.613382 89.001127,78.810553 82.600216,77.666986 77.237591,73.823876 c 4.64776,1.997332 9.473374,2.749712 13.812665,6.906334 -1.239814,-7.370389 -6.226752,-9.494803 -10.743184,-12.277925 -0.25605,-0.991349 2.474018,-0.116372 7.673703,2.302113 L 82.097603,55.406993 v -1.278951 c 10.470118,16.682508 11.90988,25.312827 14.769809,31.858034 2.148559,4.917181 1.923936,9.875226 2.879703,16.742084 7.644915,-9.407321 9.747175,-17.706106 7.162125,-25.067431 1.21303,3.61188 2.73608,9.083807 3.32527,8.952653 1.23357,-1.556723 2.6546,-1.613762 3.58106,-5.627383 1.17022,-5.704054 1.70763,-8.876818 2.5579,-13.301083 l -0.38368,5.499486 c 3.22219,-3.646368 3.51752,-4.069016 5.24369,-6.522645 -3.80495,7.181987 -6.00469,11.728915 -5.88317,15.603193 2.94888,-0.187068 5.15354,-5.211546 7.6737,-8.185282 -0.93789,1.705266 -2.63723,5.314119 -2.81369,5.1158 0.83244,0.610873 3.17141,-1.414687 4.86002,-2.30211 -1.44948,1.449477 -2.33641,1.773851 -4.34844,4.348432 2.88997,-0.314081 5.82383,-0.759859 8.95266,-1.79053 -3.12951,1.083455 1.32348,1.814234 -10.99898,3.32527 -10.02319,8.032123 -13.99576,16.568464 -18.41688,25.06743 16.23638,-5.71976 27.86373,-6.64611 38.11272,-6.13896 v 1.02316 c -35.89333,1.64774 -46.180024,17.55958 -46.298004,39.13587 -2.986249,11.78452 1.868098,24.62855 7.673702,37.60115 4.343602,13.57749 3.946862,24.56934 3.069482,35.29902 z"
       id="path21376"
       sodipodi:nodetypes="ccsccccccccccccccccccccccccccsccccccccccccccccccccc" />
    <path
       style="fill:#008000;stroke:none;stroke-width:0.227943px;stroke-linecap:butt;stroke-linejoin:miter;stroke-opacity:1"
       d="m 19.429025,100.17026 c -2.790535,0.25324 -5.37249,-0.0165 -5.685304,-5.982616 4.835527,1.166856 6.699288,3.169881 5.685304,5.982616 z"
       id="path22302"
       sodipodi:nodetypes="ccc"
       inkscape:transform-center-x="1.0640288"
       inkscape:transform-center-y="-5.3763547" />
    <path
       style="fill:#008000;stroke:none;stroke-width:0.227943px;stroke-linecap:butt;stroke-linejoin:miter;stroke-opacity:1"
       d="m 27.870106,98.635514 c -2.486215,-1.292265 -4.514662,-2.912344 -1.559335,-8.104496 3.441931,3.591238 3.930563,6.283255 1.559335,8.104496 z"
       id="path22629"
       sodipodi:nodetypes="ccc"
       inkscape:transform-center-x="-1.9097473"
       inkscape:transform-center-y="-5.1988663" />
    <path
       style="fill:#008000;stroke:none;stroke-width:0.227943px;stroke-linecap:butt;stroke-linejoin:miter;stroke-opacity:1"
       d="m 45.26383,99.658676 c -2.486215,-1.292265 -4.514662,-2.912344 -1.559335,-8.104496 3.441931,3.591238 3.930563,6.283255 1.559335,8.104496 z"
       id="path22631"
       sodipodi:nodetypes="ccc"
       inkscape:transform-center-x="-1.9097473"
       inkscape:transform-center-y="-5.1988663" />
    <path
       style="fill:#008000;stroke:none;stroke-width:0.227943px;stroke-linecap:butt;stroke-linejoin:miter;stroke-opacity:1"
       d="m 51.658582,103.49553 c 0.137603,-2.79862 0.764066,-5.317903 6.715654,-4.797327 -1.828494,4.626067 -4.071418,6.192917 -6.715654,4.797327 z"
       id="path22633"
       sodipodi:nodetypes="ccc"
       inkscape:transform-center-x="-5.521146"
       inkscape:transform-center-y="-0.22199278" />
    <path
       style="fill:#008000;stroke:none;stroke-width:0.227943px;stroke-linecap:butt;stroke-linejoin:miter;stroke-opacity:1"
       d="m 77.237591,73.823876 c -2.235424,1.689405 -4.570079,2.824584 -7.987906,-2.075503 4.721988,-1.5642 7.362677,-0.848321 7.987906,2.075503 z"
       id="path22635"
       sodipodi:nodetypes="ccc"
       inkscape:transform-center-x="3.8737853"
       inkscape:transform-center-y="-3.6386805" />
    <path
       style="fill:#008000;stroke:none;stroke-width:0.227943px;stroke-linecap:butt;stroke-linejoin:miter;stroke-opacity:1"
       d="m 80.307072,68.452285 c -2.556684,1.146549 -5.086109,1.730719 -7.321219,-3.809739 4.952231,-0.468293 7.365869,0.820146 7.321219,3.809739 z"
       id="path22637"
       sodipodi:nodetypes="ccc"
       inkscape:transform-center-x="2.8899737"
       inkscape:transform-center-y="-4.3908825" />
    <path
       style="fill:#008000;stroke:none;stroke-width:0.227943px;stroke-linecap:butt;stroke-linejoin:miter;stroke-opacity:1"
       d="m 82.097603,55.406993 c -2.760297,0.481627 -5.355683,0.424908 -6.15756,-5.495344 4.915042,0.76567 6.937056,2.608815 6.15756,5.495344 z"
       id="path22639"
       sodipodi:nodetypes="ccc"
       inkscape:transform-center-x="1.55669"
       inkscape:transform-center-y="-5.1988585" />
    <path
       style="fill:#008000;stroke:none;stroke-width:0.165805px;stroke-linecap:butt;stroke-linejoin:miter;stroke-opacity:1"
       d="m 116.37347,67.684916 c -1.55745,-1.315662 -2.73765,-2.790487 0.18968,-6.000525 1.86791,3.100142 1.78411,5.088595 -0.18968,6.000525 z"
       id="path22641"
       sodipodi:nodetypes="ccc"
       inkscape:transform-center-x="-2.056076"
       inkscape:transform-center-y="-3.3826746" />
    <path
       style="fill:#008000;stroke:none;stroke-width:0.165805px;stroke-linecap:butt;stroke-linejoin:miter;stroke-opacity:1"
       d="m 121.23348,66.661757 c -0.58549,-1.952898 -0.76807,-3.832964 3.43763,-4.921893 -0.12956,3.617069 -1.28626,5.236641 -3.43763,4.921893 z"
       id="path22643"
       sodipodi:nodetypes="ccc"
       inkscape:transform-center-x="-3.5235691"
       inkscape:transform-center-y="-1.6195609" />
    <path
       style="fill:#008000;stroke:none;stroke-width:0.12153px;stroke-linecap:butt;stroke-linejoin:miter;stroke-opacity:1"
       d="m 123.02401,74.079668 c -0.14402,-1.58997 -0.0274,-3.079154 2.92759,-3.472292 -0.54628,2.812703 -1.52673,3.952496 -2.92759,3.472292 z"
       id="path22645"
       sodipodi:nodetypes="ccc"
       inkscape:transform-center-x="-2.652775"
       inkscape:transform-center-y="-0.82689395" />
    <path
       style="fill:#008000;stroke:none;stroke-width:0.12153px;stroke-linecap:butt;stroke-linejoin:miter;stroke-opacity:1"
       d="m 125.07034,76.893358 c 0.24058,-1.578249 0.71011,-2.99628 3.67334,-2.670997 -1.20338,2.60031 -2.42806,3.472419 -3.67334,2.670997 z"
       id="path22647"
       sodipodi:nodetypes="ccc"
       inkscape:transform-center-x="-2.8050532"
       inkscape:transform-center-y="-0.095212565" />
    <path
       style="fill:#008000;stroke:none;stroke-width:0.157991px;stroke-linecap:butt;stroke-linejoin:miter;stroke-opacity:1"
       d="m 129.67456,79.45126 c 0.92726,-1.931098 2.06427,-3.570181 5.48654,-2.030883 -2.49561,2.875961 -4.31737,3.529483 -5.48654,2.030883 z"
       id="path22649"
       sodipodi:nodetypes="ccc"
       inkscape:transform-center-x="-3.4513451"
       inkscape:transform-center-y="0.87211748" />
  </g>
</svg>
