<?xml version="1.0" encoding="UTF-8" standalone="no"?>
<!-- Created with Inkscape (http://www.inkscape.org/) -->

<svg
   width="410.04199mm"
   height="33.452698mm"
   viewBox="0 0 410.04197 33.452697"
   version="1.1"
   id="svg5"
   inkscape:version="1.1.1 (3bf5ae0d25, 2021-09-20)"
   sodipodi:docname="wave.svg"
   xmlns:inkscape="http://www.inkscape.org/namespaces/inkscape"
   xmlns:sodipodi="http://sodipodi.sourceforge.net/DTD/sodipodi-0.dtd"
   xmlns="http://www.w3.org/2000/svg"
   xmlns:svg="http://www.w3.org/2000/svg">
  <sodipodi:namedview
     id="namedview7"
     pagecolor="#ffffff"
     bordercolor="#666666"
     borderopacity="1.0"
     inkscape:pageshadow="2"
     inkscape:pageopacity="0.0"
     inkscape:pagecheckerboard="0"
     inkscape:document-units="mm"
     showgrid="true"
     inkscape:zoom="0.27171016"
     inkscape:cx="1580.7285"
     inkscape:cy="553.89906"
     inkscape:window-width="1600"
     inkscape:window-height="837"
     inkscape:window-x="-8"
     inkscape:window-y="-8"
     inkscape:window-maximized="1"
     inkscape:current-layer="layer1">
    <inkscape:grid
       type="xygrid"
       id="grid3702"
       originx="-1.2480777"
       originy="-175.10373" />
  </sodipodi:namedview>
  <defs
     id="defs2" />
  <g
     inkscape:label="Layer 1"
     inkscape:groupmode="layer"
     id="layer1"
     transform="translate(-1.2480848,-175.10375)">
    <g
       id="g4704">
      <g
         id="g4558"
         transform="matrix(1.8987447,0,0,1.8987447,-140.20259,-172.40629)">
        <g
           id="g3918"
           transform="matrix(0.50002204,0,0,0.50002204,64.820056,92.599793)"
           style="stroke-width:11.9995;stroke-miterlimit:4;stroke-dasharray:none">
          <path
             style="fill:none;stroke:#000000;stroke-width:11.9995;stroke-linecap:butt;stroke-linejoin:miter;stroke-miterlimit:4;stroke-dasharray:none;stroke-opacity:1"
             d="m 23.8125,198.4375 c 0,0 23.812496,-26.45834 50.270832,0 26.458338,26.45834 55.562498,0 55.562498,0"
             id="path3737"
             sodipodi:nodetypes="czc" />
          <path
             style="fill:none;stroke:#000000;stroke-width:11.9995;stroke-linecap:butt;stroke-linejoin:miter;stroke-miterlimit:4;stroke-dasharray:none;stroke-opacity:1"
             d="m 129.64584,198.4375 c 0,0 23.81249,-26.45834 50.27083,0 26.45834,26.45834 55.5625,0 55.5625,0"
             id="path3914"
             sodipodi:nodetypes="czc" />
        </g>
        <g
           id="g4550"
           transform="matrix(0.50002204,0,0,0.50002204,117.73673,92.599793)"
           style="stroke-width:11.9995;stroke-miterlimit:4;stroke-dasharray:none">
          <path
             style="fill:none;stroke:#000000;stroke-width:11.9995;stroke-linecap:butt;stroke-linejoin:miter;stroke-miterlimit:4;stroke-dasharray:none;stroke-opacity:1"
             d="m 23.8125,198.4375 c 0,0 23.812496,-26.45834 50.270832,0 26.458338,26.45834 55.562498,0 55.562498,0"
             id="path4546"
             sodipodi:nodetypes="czc" />
          <path
             style="fill:none;stroke:#000000;stroke-width:11.9995;stroke-linecap:butt;stroke-linejoin:miter;stroke-miterlimit:4;stroke-dasharray:none;stroke-opacity:1"
             d="m 129.64584,198.4375 c 0,0 23.81249,-26.45834 50.27083,0 26.45834,26.45834 55.5625,0 55.5625,0"
             id="path4548"
             sodipodi:nodetypes="czc" />
        </g>
      </g>
      <g
         id="g4688"
         transform="matrix(1.8987447,0,0,1.8987447,-39.660896,-172.40629)">
        <g
           id="g4680"
           transform="matrix(0.50002204,0,0,0.50002204,64.820056,92.599793)"
           style="stroke-width:11.9995;stroke-miterlimit:4;stroke-dasharray:none">
          <path
             style="fill:none;stroke:#000000;stroke-width:11.9995;stroke-linecap:butt;stroke-linejoin:miter;stroke-miterlimit:4;stroke-dasharray:none;stroke-opacity:1"
             d="m 23.8125,198.4375 c 0,0 23.812496,-26.45834 50.270832,0 26.458338,26.45834 55.562498,0 55.562498,0"
             id="path4676"
             sodipodi:nodetypes="czc" />
          <path
             style="fill:none;stroke:#000000;stroke-width:11.9995;stroke-linecap:butt;stroke-linejoin:miter;stroke-miterlimit:4;stroke-dasharray:none;stroke-opacity:1"
             d="m 129.64584,198.4375 c 0,0 23.81249,-26.45834 50.27083,0 26.45834,26.45834 55.5625,0 55.5625,0"
             id="path4678"
             sodipodi:nodetypes="czc" />
        </g>
        <g
           id="g4686"
           transform="matrix(0.50002204,0,0,0.50002204,117.73673,92.599793)"
           style="stroke-width:11.9995;stroke-miterlimit:4;stroke-dasharray:none">
          <path
             style="fill:none;stroke:#000000;stroke-width:11.9995;stroke-linecap:butt;stroke-linejoin:miter;stroke-miterlimit:4;stroke-dasharray:none;stroke-opacity:1"
             d="m 23.8125,198.4375 c 0,0 23.812496,-26.45834 50.270832,0 26.458338,26.45834 55.562498,0 55.562498,0"
             id="path4682"
             sodipodi:nodetypes="czc" />
          <path
             style="fill:none;stroke:#000000;stroke-width:11.9995;stroke-linecap:butt;stroke-linejoin:miter;stroke-miterlimit:4;stroke-dasharray:none;stroke-opacity:1"
             d="m 129.64584,198.4375 c 0,0 23.81249,-26.45834 50.27083,0 26.45834,26.45834 55.5625,0 55.5625,0"
             id="path4684"
             sodipodi:nodetypes="czc" />
        </g>
      </g>
    </g>
  </g>
</svg>
